<svg width="176" height="54" viewBox="0 0 176 54" fill="none" xmlns="http://www.w3.org/2000/svg">
<g clip-path="url(#clip0_1_5)">
<g style="mix-blend-mode:darken">
<path d="M41.4609 28.6328C41.4609 28.5911 41.4818 28.5703 41.5234 28.5703C41.6224 28.5651 41.737 28.5521 41.8672 28.5312C42.0026 28.5052 42.138 28.4557 42.2734 28.3828C42.4141 28.3047 42.5495 28.1927 42.6797 28.0469C42.8099 27.8958 42.9193 27.6901 43.0078 27.4297L46.1484 18.3203C46.1484 18.3255 46.1484 18.3229 46.1484 18.3125C46.1536 18.3021 46.1562 18.2917 46.1562 18.2812C46.1562 18.2448 46.1406 18.2005 46.1094 18.1484C46.0833 18.0911 46.0703 18.0495 46.0703 18.0234C46.0703 17.9974 46.0807 17.9844 46.1016 17.9844H48.3672C48.3776 17.9896 48.3906 17.9948 48.4062 18C48.4271 18.0052 48.4427 18.0208 48.4531 18.0469L51.7578 27.3203C51.8099 27.4661 51.8594 27.5911 51.9062 27.6953C51.9531 27.7995 52.0078 27.8932 52.0703 27.9766C52.138 28.0547 52.2214 28.1276 52.3203 28.1953C52.4193 28.2578 52.5469 28.3229 52.7031 28.3906C52.776 28.4271 52.875 28.4661 53 28.5078C53.125 28.5495 53.2448 28.5703 53.3594 28.5703C53.3854 28.5703 53.401 28.5781 53.4062 28.5938C53.4167 28.6094 53.4219 28.625 53.4219 28.6406V28.9375C53.4219 28.9479 53.4167 28.9609 53.4062 28.9766C53.401 28.9922 53.3854 29 53.3594 29H47.875C47.849 29 47.8307 28.9922 47.8203 28.9766C47.8151 28.9609 47.8125 28.9479 47.8125 28.9375V28.6328C47.8125 28.6224 47.8151 28.6094 47.8203 28.5938C47.8307 28.5781 47.849 28.5703 47.875 28.5703C47.8958 28.5703 47.9167 28.5703 47.9375 28.5703C47.9583 28.5651 47.974 28.5625 47.9844 28.5625C48.0417 28.5573 48.1224 28.5521 48.2266 28.5469C48.3359 28.5417 48.4531 28.5339 48.5781 28.5234C48.7031 28.5078 48.8281 28.487 48.9531 28.4609C49.0833 28.4297 49.2005 28.388 49.3047 28.3359C49.4089 28.2786 49.4948 28.2057 49.5625 28.1172C49.6302 28.0286 49.6641 27.9193 49.6641 27.7891C49.6641 27.7578 49.6589 27.7214 49.6484 27.6797L48.625 24.8594C48.6198 24.849 48.6094 24.8255 48.5938 24.7891C48.5833 24.7526 48.5625 24.7161 48.5312 24.6797C48.5052 24.638 48.4688 24.6016 48.4219 24.5703C48.3802 24.5391 48.3281 24.5234 48.2656 24.5234H45.4453C45.3776 24.5234 45.3203 24.5391 45.2734 24.5703C45.2266 24.6016 45.1875 24.6354 45.1562 24.6719C45.125 24.7083 45.099 24.7448 45.0781 24.7812C45.0625 24.8177 45.0547 24.8385 45.0547 24.8438C44.888 25.3333 44.7474 25.7474 44.6328 26.0859C44.5182 26.4193 44.4219 26.6953 44.3438 26.9141C44.2708 27.1328 44.2135 27.3021 44.1719 27.4219C44.1302 27.5417 44.099 27.6302 44.0781 27.6875C44.0625 27.7396 44.0521 27.7734 44.0469 27.7891C44.0469 27.7995 44.0469 27.8047 44.0469 27.8047C44.0469 27.8203 44.0495 27.8385 44.0547 27.8594C44.0599 27.875 44.0651 27.8906 44.0703 27.9062C44.112 28.0365 44.1875 28.1458 44.2969 28.2344C44.4115 28.3177 44.5417 28.3854 44.6875 28.4375C44.8333 28.4844 44.9818 28.5182 45.1328 28.5391C45.2891 28.5599 45.4271 28.5703 45.5469 28.5703H45.75C45.776 28.5703 45.7917 28.5781 45.7969 28.5938C45.8073 28.6094 45.8125 28.6224 45.8125 28.6328V28.9375C45.8125 28.9479 45.8073 28.9609 45.7969 28.9766C45.7917 28.9922 45.776 29 45.75 29H41.5234C41.4818 29 41.4609 28.9792 41.4609 28.9375V28.6328ZM45.5547 23.3984C45.5443 23.4245 45.5365 23.4505 45.5312 23.4766C45.526 23.5026 45.5234 23.5286 45.5234 23.5547C45.5234 23.5859 45.5312 23.612 45.5469 23.6328C45.5625 23.6484 45.5938 23.6562 45.6406 23.6562H47.9844C48.0417 23.6562 48.0781 23.6458 48.0938 23.625C48.1146 23.599 48.125 23.5703 48.125 23.5391C48.125 23.513 48.1224 23.4896 48.1172 23.4688C48.112 23.4479 48.1042 23.4245 48.0938 23.3984L47.0547 20.5469C47.0286 20.474 46.9896 20.4219 46.9375 20.3906C46.8854 20.3542 46.8385 20.3359 46.7969 20.3359C46.7552 20.3359 46.7083 20.3568 46.6562 20.3984C46.6042 20.4349 46.5651 20.487 46.5391 20.5547L45.5547 23.3984ZM53.5234 28.6016C53.5234 28.5964 53.526 28.5859 53.5312 28.5703C53.5365 28.5495 53.5547 28.5391 53.5859 28.5391H53.7578C53.9766 28.5234 54.2005 28.5156 54.4297 28.5156C54.6589 28.5104 54.8672 28.4818 55.0547 28.4297C55.2422 28.3724 55.3958 28.276 55.5156 28.1406C55.6354 28 55.6953 27.7839 55.6953 27.4922V19.4922C55.6953 19.2891 55.6536 19.125 55.5703 19C55.487 18.8698 55.3776 18.7656 55.2422 18.6875C55.1068 18.6094 54.9531 18.5521 54.7812 18.5156C54.6094 18.474 54.4349 18.4401 54.2578 18.4141H54.0938C54.0677 18.4141 54.0495 18.4062 54.0391 18.3906C54.0339 18.375 54.0312 18.362 54.0312 18.3516V18.0469C54.0312 18.0365 54.0339 18.0234 54.0391 18.0078C54.0495 17.9922 54.0677 17.9844 54.0938 17.9844H61.875C61.9688 17.9844 62.0365 18.0026 62.0781 18.0391C62.1198 18.0703 62.1458 18.1432 62.1562 18.2578L62.2969 20.7578C62.2969 20.7839 62.2734 20.8047 62.2266 20.8203C62.1849 20.8307 62.1458 20.8359 62.1094 20.8359C62.0677 20.8359 62.026 20.8307 61.9844 20.8203C61.9427 20.8099 61.9141 20.7943 61.8984 20.7734C61.862 20.7214 61.8359 20.6458 61.8203 20.5469C61.8047 20.4427 61.7865 20.3281 61.7656 20.2031C61.75 20.0781 61.724 19.9479 61.6875 19.8125C61.6562 19.6771 61.6068 19.5521 61.5391 19.4375C61.4714 19.3229 61.3776 19.224 61.2578 19.1406C61.1432 19.0521 60.9948 18.9922 60.8125 18.9609H58.0234C57.9557 18.9609 57.9219 18.9948 57.9219 19.0625V22.7891C57.9219 22.8411 57.9479 22.8672 58 22.8672H60.2344C60.3646 22.8672 60.4922 22.8516 60.6172 22.8203C60.7474 22.7839 60.8594 22.7214 60.9531 22.6328C61.0521 22.5443 61.1302 22.4219 61.1875 22.2656C61.25 22.1042 61.2812 21.8984 61.2812 21.6484C61.2812 21.6068 61.3021 21.5859 61.3438 21.5859H61.6484C61.6901 21.5859 61.7109 21.6068 61.7109 21.6484V25.2266C61.7109 25.2526 61.7031 25.2708 61.6875 25.2812C61.6719 25.2865 61.6589 25.2891 61.6484 25.2891H61.3438C61.3177 25.2891 61.2995 25.2812 61.2891 25.2656C61.2839 25.25 61.2812 25.237 61.2812 25.2266C61.2812 24.9349 61.25 24.7005 61.1875 24.5234C61.1302 24.3411 61.0521 24.2005 60.9531 24.1016C60.8542 23.9974 60.7396 23.9297 60.6094 23.8984C60.4844 23.862 60.3516 23.8438 60.2109 23.8438H58C57.9479 23.8438 57.9219 23.8698 57.9219 23.9219V27.3359C57.9219 27.487 57.9453 27.6094 57.9922 27.7031C58.0391 27.7917 58.1016 27.8594 58.1797 27.9062C58.263 27.9531 58.3568 27.9844 58.4609 28C58.5651 28.0156 58.6745 28.0234 58.7891 28.0234H60.9219C61.224 28.0234 61.4766 27.9557 61.6797 27.8203C61.8828 27.6797 62.0469 27.5104 62.1719 27.3125C62.2969 27.1146 62.388 26.9089 62.4453 26.6953C62.5078 26.4818 62.5469 26.2995 62.5625 26.1484C62.5729 26.0807 62.6068 26.0286 62.6641 25.9922C62.7214 25.9505 62.7865 25.9297 62.8594 25.9297C62.8854 25.9297 62.9167 25.9401 62.9531 25.9609C62.9896 25.9818 63.0078 26.0052 63.0078 26.0312L62.75 28.8906C62.7396 28.9167 62.724 28.9427 62.7031 28.9688C62.6875 28.9896 62.6667 29 62.6406 29H53.5859C53.5547 29 53.5365 28.9922 53.5312 28.9766C53.526 28.9557 53.5234 28.9427 53.5234 28.9375V28.8281V28.6016ZM64.7656 28.7891C64.6979 28.7891 64.6562 28.7344 64.6406 28.625C64.5833 28.1354 64.5391 27.7552 64.5078 27.4844C64.4766 27.2135 64.4531 27.0104 64.4375 26.875C64.4271 26.7396 64.4193 26.6536 64.4141 26.6172C64.4141 26.5755 64.4141 26.5469 64.4141 26.5312C64.4141 26.474 64.4401 26.4115 64.4922 26.3438C64.5443 26.276 64.6068 26.2422 64.6797 26.2422C64.7318 26.2422 64.7865 26.2734 64.8438 26.3359C64.9062 26.3984 64.9635 26.4714 65.0156 26.5547C65.0729 26.638 65.1198 26.7214 65.1562 26.8047C65.1979 26.888 65.224 26.9479 65.2344 26.9844C65.3698 27.2708 65.5156 27.513 65.6719 27.7109C65.8333 27.9036 66.0156 28.0599 66.2188 28.1797C66.4219 28.2943 66.651 28.3776 66.9062 28.4297C67.1615 28.4818 67.4531 28.5078 67.7812 28.5078C68.3385 28.5078 68.7708 28.375 69.0781 28.1094C69.3906 27.8438 69.5469 27.4167 69.5469 26.8281C69.5469 26.4896 69.4714 26.1823 69.3203 25.9062C69.1745 25.6302 68.9818 25.375 68.7422 25.1406C68.5026 24.901 68.2292 24.6745 67.9219 24.4609C67.6146 24.2474 67.2995 24.0312 66.9766 23.8125C66.6536 23.5938 66.3385 23.3672 66.0312 23.1328C65.724 22.8932 65.4505 22.6302 65.2109 22.3438C64.9714 22.0573 64.776 21.7396 64.625 21.3906C64.4792 21.0417 64.4062 20.6484 64.4062 20.2109C64.4062 19.9453 64.4531 19.6979 64.5469 19.4688C64.6458 19.2396 64.776 19.0312 64.9375 18.8438C65.099 18.6562 65.2865 18.4896 65.5 18.3438C65.7188 18.1927 65.9505 18.0677 66.1953 17.9688C66.4401 17.8646 66.6875 17.7865 66.9375 17.7344C67.1927 17.6823 67.4401 17.6562 67.6797 17.6562C67.8724 17.6562 68.0651 17.6745 68.2578 17.7109C68.4557 17.7422 68.6484 17.7812 68.8359 17.8281C69.0286 17.875 69.2214 17.9271 69.4141 17.9844C69.6068 18.0365 69.7969 18.0859 69.9844 18.1328L70.5 18.0859C70.5469 18.0859 70.5755 18.1068 70.5859 18.1484C70.6016 18.1849 70.612 18.2188 70.6172 18.25L70.8438 20.0859C70.8438 20.112 70.8099 20.1302 70.7422 20.1406C70.6745 20.151 70.6224 20.1562 70.5859 20.1562C70.5547 20.1562 70.5078 20.1536 70.4453 20.1484C70.3828 20.138 70.3464 20.1276 70.3359 20.1172C70.3203 20.1016 70.2995 20.0703 70.2734 20.0234C70.2526 19.9714 70.2292 19.9167 70.2031 19.8594C70.1771 19.7969 70.1484 19.7344 70.1172 19.6719C70.0911 19.6094 70.0625 19.5547 70.0312 19.5078C69.7812 19.1224 69.4609 18.8359 69.0703 18.6484C68.6797 18.4557 68.25 18.3594 67.7812 18.3594C67.5781 18.3594 67.388 18.3828 67.2109 18.4297C67.0339 18.4766 66.8802 18.5521 66.75 18.6562C66.6198 18.7552 66.5156 18.8828 66.4375 19.0391C66.3646 19.1953 66.3281 19.3828 66.3281 19.6016C66.3281 19.9193 66.401 20.2083 66.5469 20.4688C66.6979 20.724 66.8932 20.9661 67.1328 21.1953C67.3776 21.4193 67.6536 21.638 67.9609 21.8516C68.2734 22.0651 68.5885 22.2839 68.9062 22.5078C69.2292 22.7266 69.5443 22.9609 69.8516 23.2109C70.1641 23.4609 70.4401 23.737 70.6797 24.0391C70.9245 24.3411 71.1198 24.6771 71.2656 25.0469C71.4167 25.4167 71.4922 25.8333 71.4922 26.2969C71.4922 26.6042 71.4375 26.8906 71.3281 27.1562C71.224 27.4219 71.0807 27.6641 70.8984 27.8828C70.7161 28.0964 70.5026 28.2865 70.2578 28.4531C70.013 28.6198 69.75 28.7604 69.4688 28.875C69.1927 28.9844 68.9062 29.0677 68.6094 29.125C68.3177 29.1823 68.0312 29.2109 67.75 29.2109C67.3958 29.2109 67.0859 29.1849 66.8203 29.1328C66.5599 29.0807 66.3333 29.0234 66.1406 28.9609C65.9531 28.8932 65.7943 28.8333 65.6641 28.7812C65.5339 28.7292 65.4245 28.7031 65.3359 28.7031C65.3047 28.7031 65.2812 28.7057 65.2656 28.7109L64.7656 28.7891ZM76.9531 19.1797C76.9531 19.0703 76.9297 19.0104 76.8828 19C76.8411 18.9844 76.7891 18.9714 76.7266 18.9609H74.0781C73.8854 19.0026 73.7344 19.0807 73.625 19.1953C73.5156 19.3047 73.4297 19.4349 73.3672 19.5859C73.3047 19.737 73.2578 19.901 73.2266 20.0781C73.1953 20.25 73.1615 20.4167 73.125 20.5781C73.1146 20.625 73.1042 20.6823 73.0938 20.75C73.0833 20.8125 73.0729 20.849 73.0625 20.8594C73.0521 20.875 73.0339 20.8828 73.0078 20.8828H72.75C72.7188 20.8828 72.7031 20.8724 72.7031 20.8516V20.5938L72.9922 17.9219C73.0026 17.8646 73.026 17.8099 73.0625 17.7578C73.099 17.7057 73.1562 17.6797 73.2344 17.6797C73.2708 17.6797 73.3047 17.6901 73.3359 17.7109C73.3724 17.7318 73.4062 17.7578 73.4375 17.7891C73.4688 17.8151 73.4974 17.8411 73.5234 17.8672C73.5547 17.8932 73.5859 17.9115 73.6172 17.9219C73.6797 17.9479 73.737 17.9661 73.7891 17.9766C73.8464 17.9818 73.9089 17.9844 73.9766 17.9844H82.1641C82.2318 17.9844 82.2917 17.9818 82.3438 17.9766C82.401 17.9661 82.4609 17.9479 82.5234 17.9219C82.5547 17.9115 82.5833 17.8932 82.6094 17.8672C82.6406 17.8411 82.6719 17.8151 82.7031 17.7891C82.7344 17.7578 82.7656 17.7318 82.7969 17.7109C82.8333 17.6901 82.8698 17.6797 82.9062 17.6797C82.9844 17.6797 83.0417 17.7057 83.0781 17.7578C83.1146 17.8099 83.138 17.8646 83.1484 17.9219L83.4375 20.5938V20.8516C83.4375 20.8724 83.4219 20.8828 83.3906 20.8828H83.1328C83.1068 20.8828 83.0885 20.875 83.0781 20.8594C83.0677 20.849 83.0573 20.8125 83.0469 20.75C83.0365 20.6823 83.026 20.625 83.0156 20.5781C82.9792 20.4167 82.9453 20.25 82.9141 20.0781C82.8828 19.901 82.8359 19.737 82.7734 19.5859C82.7109 19.4349 82.625 19.3047 82.5156 19.1953C82.4062 19.0807 82.2552 19.0026 82.0625 18.9609H79.4062C79.3438 18.9714 79.2891 18.9844 79.2422 19C79.2005 19.0104 79.1797 19.0703 79.1797 19.1797V27.4766C79.1797 27.6328 79.2188 27.7734 79.2969 27.8984C79.375 28.0182 79.4792 28.125 79.6094 28.2188C79.7448 28.3125 79.901 28.388 80.0781 28.4453C80.2604 28.5026 80.4531 28.5417 80.6562 28.5625C80.7135 28.5677 80.7865 28.5703 80.875 28.5703C80.9635 28.5703 81.0391 28.5703 81.1016 28.5703C81.1276 28.5703 81.1432 28.5781 81.1484 28.5938C81.1589 28.6094 81.1641 28.6224 81.1641 28.6328V28.9375C81.1641 28.9479 81.1589 28.9609 81.1484 28.9766C81.1432 28.9922 81.1276 29 81.1016 29H75.0312C75.0052 29 74.987 28.9922 74.9766 28.9766C74.9714 28.9609 74.9688 28.9479 74.9688 28.9375V28.6328C74.9688 28.6224 74.9714 28.6094 74.9766 28.5938C74.987 28.5781 75.0052 28.5703 75.0312 28.5703C75.0885 28.5703 75.1615 28.5703 75.25 28.5703C75.3438 28.5703 75.4193 28.5677 75.4766 28.5625C75.6797 28.5417 75.8698 28.5026 76.0469 28.4453C76.2292 28.388 76.3854 28.3125 76.5156 28.2188C76.651 28.125 76.7578 28.0182 76.8359 27.8984C76.9141 27.7734 76.9531 27.6328 76.9531 27.4766V19.1797ZM84.4688 29C84.4427 29 84.4245 28.9922 84.4141 28.9766C84.4089 28.9609 84.4062 28.9479 84.4062 28.9375V28.5156C84.4062 28.5052 84.4089 28.4922 84.4141 28.4766C84.4245 28.4609 84.4427 28.4531 84.4688 28.4531C84.6302 28.4531 84.7917 28.4427 84.9531 28.4219C85.1198 28.3958 85.2708 28.3438 85.4062 28.2656C85.5417 28.1875 85.651 28.0755 85.7344 27.9297C85.8229 27.7839 85.8672 27.5859 85.8672 27.3359V19.5078C85.8672 19.3307 85.8385 19.1823 85.7812 19.0625C85.724 18.9427 85.6432 18.8464 85.5391 18.7734C85.4349 18.6953 85.3099 18.638 85.1641 18.6016C85.0182 18.5651 84.8568 18.5417 84.6797 18.5312C84.638 18.5312 84.6172 18.5104 84.6172 18.4688V18.0469C84.6172 18.0052 84.6354 17.9844 84.6719 17.9844H89.2969C89.3229 17.9844 89.3385 17.9922 89.3438 18.0078C89.3542 18.0234 89.3594 18.0365 89.3594 18.0469V18.4688C89.3594 18.5 89.3385 18.5156 89.2969 18.5156C89.1406 18.5156 88.9896 18.5312 88.8438 18.5625C88.6979 18.5885 88.5703 18.6406 88.4609 18.7188C88.3516 18.7969 88.263 18.9089 88.1953 19.0547C88.1276 19.1953 88.0938 19.3828 88.0938 19.6172V22.8359C88.0938 22.888 88.1016 22.9219 88.1172 22.9375C88.1328 22.9531 88.1667 22.9609 88.2188 22.9609H93.6719C93.724 22.9609 93.7578 22.9531 93.7734 22.9375C93.7891 22.9219 93.7969 22.888 93.7969 22.8359V19.4922C93.7969 19.3099 93.7396 19.1589 93.625 19.0391C93.5104 18.9193 93.3646 18.8255 93.1875 18.7578C93.0156 18.6849 92.8281 18.6328 92.625 18.6016C92.4219 18.5651 92.2344 18.5417 92.0625 18.5312C92.0208 18.5312 92 18.5104 92 18.4688V18.0469C92 18.0052 92.0182 17.9844 92.0547 17.9844H97.2656C97.2917 17.9844 97.3073 17.9922 97.3125 18.0078C97.3229 18.0234 97.3281 18.0365 97.3281 18.0469V18.4688C97.3281 18.5 97.3073 18.5156 97.2656 18.5156C97.1094 18.5156 96.9557 18.5312 96.8047 18.5625C96.6589 18.5885 96.526 18.6406 96.4062 18.7188C96.2917 18.7969 96.1979 18.9089 96.125 19.0547C96.0573 19.1953 96.0234 19.3828 96.0234 19.6172V27.3516C96.0234 27.487 96.0417 27.6094 96.0781 27.7188C96.1198 27.8229 96.1823 27.9271 96.2656 28.0312C96.349 28.1458 96.4844 28.2422 96.6719 28.3203C96.8646 28.3984 97.1354 28.4427 97.4844 28.4531C97.526 28.4531 97.5469 28.474 97.5469 28.5156V28.9375C97.5469 28.9792 97.526 29 97.4844 29H91.8125C91.7865 29 91.7682 28.9922 91.7578 28.9766C91.7526 28.9609 91.75 28.9479 91.75 28.9375V28.5156C91.75 28.5052 91.7526 28.4922 91.7578 28.4766C91.7682 28.4609 91.7865 28.4531 91.8125 28.4531C91.9688 28.4531 92.1589 28.4427 92.3828 28.4219C92.6068 28.401 92.8229 28.3568 93.0312 28.2891C93.2448 28.2161 93.4245 28.1146 93.5703 27.9844C93.7214 27.849 93.7969 27.6667 93.7969 27.4375V24.0625C93.7969 24.0104 93.7891 23.9766 93.7734 23.9609C93.7578 23.9453 93.724 23.9375 93.6719 23.9375H88.2188C88.1667 23.9375 88.1328 23.9453 88.1172 23.9609C88.1016 23.9766 88.0938 24.0104 88.0938 24.0625V27.5156C88.0938 27.6927 88.1328 27.8411 88.2109 27.9609C88.2891 28.0807 88.3906 28.1771 88.5156 28.25C88.6458 28.3229 88.7943 28.375 88.9609 28.4062C89.1276 28.4375 89.2995 28.4531 89.4766 28.4531C89.5078 28.4531 89.526 28.4609 89.5312 28.4766C89.5365 28.4922 89.5391 28.5052 89.5391 28.5156V28.9375C89.5391 28.9479 89.5365 28.9609 89.5312 28.9766C89.526 28.9922 89.5104 29 89.4844 29H84.4688ZM98.0703 28.6016C98.0703 28.5964 98.0729 28.5859 98.0781 28.5703C98.0833 28.5495 98.1016 28.5391 98.1328 28.5391H98.3047C98.5234 28.5234 98.7474 28.5156 98.9766 28.5156C99.2057 28.5104 99.4141 28.4818 99.6016 28.4297C99.7891 28.3724 99.9427 28.276 100.062 28.1406C100.182 28 100.242 27.7839 100.242 27.4922V19.4922C100.242 19.2891 100.201 19.125 100.117 19C100.034 18.8698 99.9245 18.7656 99.7891 18.6875C99.6536 18.6094 99.5 18.5521 99.3281 18.5156C99.1562 18.474 98.9818 18.4401 98.8047 18.4141H98.6406C98.6146 18.4141 98.5964 18.4062 98.5859 18.3906C98.5807 18.375 98.5781 18.362 98.5781 18.3516V18.0469C98.5781 18.0365 98.5807 18.0234 98.5859 18.0078C98.5964 17.9922 98.6146 17.9844 98.6406 17.9844H106.422C106.516 17.9844 106.583 18.0026 106.625 18.0391C106.667 18.0703 106.693 18.1432 106.703 18.2578L106.844 20.7578C106.844 20.7839 106.82 20.8047 106.773 20.8203C106.732 20.8307 106.693 20.8359 106.656 20.8359C106.615 20.8359 106.573 20.8307 106.531 20.8203C106.49 20.8099 106.461 20.7943 106.445 20.7734C106.409 20.7214 106.383 20.6458 106.367 20.5469C106.352 20.4427 106.333 20.3281 106.312 20.2031C106.297 20.0781 106.271 19.9479 106.234 19.8125C106.203 19.6771 106.154 19.5521 106.086 19.4375C106.018 19.3229 105.924 19.224 105.805 19.1406C105.69 19.0521 105.542 18.9922 105.359 18.9609H102.57C102.503 18.9609 102.469 18.9948 102.469 19.0625V22.7891C102.469 22.8411 102.495 22.8672 102.547 22.8672H104.781C104.911 22.8672 105.039 22.8516 105.164 22.8203C105.294 22.7839 105.406 22.7214 105.5 22.6328C105.599 22.5443 105.677 22.4219 105.734 22.2656C105.797 22.1042 105.828 21.8984 105.828 21.6484C105.828 21.6068 105.849 21.5859 105.891 21.5859H106.195C106.237 21.5859 106.258 21.6068 106.258 21.6484V25.2266C106.258 25.2526 106.25 25.2708 106.234 25.2812C106.219 25.2865 106.206 25.2891 106.195 25.2891H105.891C105.865 25.2891 105.846 25.2812 105.836 25.2656C105.831 25.25 105.828 25.237 105.828 25.2266C105.828 24.9349 105.797 24.7005 105.734 24.5234C105.677 24.3411 105.599 24.2005 105.5 24.1016C105.401 23.9974 105.286 23.9297 105.156 23.8984C105.031 23.862 104.898 23.8438 104.758 23.8438H102.547C102.495 23.8438 102.469 23.8698 102.469 23.9219V27.3359C102.469 27.487 102.492 27.6094 102.539 27.7031C102.586 27.7917 102.648 27.8594 102.727 27.9062C102.81 27.9531 102.904 27.9844 103.008 28C103.112 28.0156 103.221 28.0234 103.336 28.0234H105.469C105.771 28.0234 106.023 27.9557 106.227 27.8203C106.43 27.6797 106.594 27.5104 106.719 27.3125C106.844 27.1146 106.935 26.9089 106.992 26.6953C107.055 26.4818 107.094 26.2995 107.109 26.1484C107.12 26.0807 107.154 26.0286 107.211 25.9922C107.268 25.9505 107.333 25.9297 107.406 25.9297C107.432 25.9297 107.464 25.9401 107.5 25.9609C107.536 25.9818 107.555 26.0052 107.555 26.0312L107.297 28.8906C107.286 28.9167 107.271 28.9427 107.25 28.9688C107.234 28.9896 107.214 29 107.188 29H98.1328C98.1016 29 98.0833 28.9922 98.0781 28.9766C98.0729 28.9557 98.0703 28.9427 98.0703 28.9375V28.8281V28.6016ZM113 19.1797C113 19.0703 112.977 19.0104 112.93 19C112.888 18.9844 112.836 18.9714 112.773 18.9609H110.125C109.932 19.0026 109.781 19.0807 109.672 19.1953C109.562 19.3047 109.477 19.4349 109.414 19.5859C109.352 19.737 109.305 19.901 109.273 20.0781C109.242 20.25 109.208 20.4167 109.172 20.5781C109.161 20.625 109.151 20.6823 109.141 20.75C109.13 20.8125 109.12 20.849 109.109 20.8594C109.099 20.875 109.081 20.8828 109.055 20.8828H108.797C108.766 20.8828 108.75 20.8724 108.75 20.8516V20.5938L109.039 17.9219C109.049 17.8646 109.073 17.8099 109.109 17.7578C109.146 17.7057 109.203 17.6797 109.281 17.6797C109.318 17.6797 109.352 17.6901 109.383 17.7109C109.419 17.7318 109.453 17.7578 109.484 17.7891C109.516 17.8151 109.544 17.8411 109.57 17.8672C109.602 17.8932 109.633 17.9115 109.664 17.9219C109.727 17.9479 109.784 17.9661 109.836 17.9766C109.893 17.9818 109.956 17.9844 110.023 17.9844H118.211C118.279 17.9844 118.339 17.9818 118.391 17.9766C118.448 17.9661 118.508 17.9479 118.57 17.9219C118.602 17.9115 118.63 17.8932 118.656 17.8672C118.688 17.8411 118.719 17.8151 118.75 17.7891C118.781 17.7578 118.812 17.7318 118.844 17.7109C118.88 17.6901 118.917 17.6797 118.953 17.6797C119.031 17.6797 119.089 17.7057 119.125 17.7578C119.161 17.8099 119.185 17.8646 119.195 17.9219L119.484 20.5938V20.8516C119.484 20.8724 119.469 20.8828 119.438 20.8828H119.18C119.154 20.8828 119.135 20.875 119.125 20.8594C119.115 20.849 119.104 20.8125 119.094 20.75C119.083 20.6823 119.073 20.625 119.062 20.5781C119.026 20.4167 118.992 20.25 118.961 20.0781C118.93 19.901 118.883 19.737 118.82 19.5859C118.758 19.4349 118.672 19.3047 118.562 19.1953C118.453 19.0807 118.302 19.0026 118.109 18.9609H115.453C115.391 18.9714 115.336 18.9844 115.289 19C115.247 19.0104 115.227 19.0703 115.227 19.1797V27.4766C115.227 27.6328 115.266 27.7734 115.344 27.8984C115.422 28.0182 115.526 28.125 115.656 28.2188C115.792 28.3125 115.948 28.388 116.125 28.4453C116.307 28.5026 116.5 28.5417 116.703 28.5625C116.76 28.5677 116.833 28.5703 116.922 28.5703C117.01 28.5703 117.086 28.5703 117.148 28.5703C117.174 28.5703 117.19 28.5781 117.195 28.5938C117.206 28.6094 117.211 28.6224 117.211 28.6328V28.9375C117.211 28.9479 117.206 28.9609 117.195 28.9766C117.19 28.9922 117.174 29 117.148 29H111.078C111.052 29 111.034 28.9922 111.023 28.9766C111.018 28.9609 111.016 28.9479 111.016 28.9375V28.6328C111.016 28.6224 111.018 28.6094 111.023 28.5938C111.034 28.5781 111.052 28.5703 111.078 28.5703C111.135 28.5703 111.208 28.5703 111.297 28.5703C111.391 28.5703 111.466 28.5677 111.523 28.5625C111.727 28.5417 111.917 28.5026 112.094 28.4453C112.276 28.388 112.432 28.3125 112.562 28.2188C112.698 28.125 112.805 28.0182 112.883 27.8984C112.961 27.7734 113 27.6328 113 27.4766V19.1797ZM124.18 27.5156C124.18 27.6927 124.206 27.8411 124.258 27.9609C124.315 28.0807 124.393 28.1771 124.492 28.25C124.596 28.3229 124.721 28.375 124.867 28.4062C125.018 28.4375 125.185 28.4531 125.367 28.4531C125.409 28.4531 125.43 28.474 125.43 28.5156V28.9375C125.43 28.9531 125.427 28.9688 125.422 28.9844C125.417 28.9948 125.398 29 125.367 29H120.75C120.724 29 120.706 28.9922 120.695 28.9766C120.69 28.9609 120.688 28.9479 120.688 28.9375V28.5156C120.688 28.5052 120.69 28.4922 120.695 28.4766C120.706 28.4609 120.724 28.4531 120.75 28.4531C120.932 28.4531 121.096 28.4427 121.242 28.4219C121.393 28.3958 121.521 28.3438 121.625 28.2656C121.729 28.1875 121.81 28.0755 121.867 27.9297C121.924 27.7839 121.953 27.5859 121.953 27.3359V19.4688C121.953 19.2917 121.924 19.1432 121.867 19.0234C121.815 18.9036 121.737 18.8073 121.633 18.7344C121.534 18.6615 121.409 18.6094 121.258 18.5781C121.112 18.5469 120.948 18.5312 120.766 18.5312C120.724 18.5312 120.703 18.5104 120.703 18.4688V18.0469C120.703 18.0052 120.724 17.9844 120.766 17.9844H125.383C125.409 17.9844 125.424 17.9922 125.43 18.0078C125.44 18.0234 125.445 18.0365 125.445 18.0469V18.4688C125.445 18.4792 125.44 18.4922 125.43 18.5078C125.424 18.5234 125.409 18.5312 125.383 18.5312C125.201 18.5312 125.034 18.5443 124.883 18.5703C124.737 18.5911 124.612 18.6406 124.508 18.7188C124.404 18.7969 124.323 18.9089 124.266 19.0547C124.208 19.2005 124.18 19.3984 124.18 19.6484V27.5156ZM126.977 23.5625C126.977 22.9792 127.049 22.4297 127.195 21.9141C127.341 21.3932 127.547 20.9141 127.812 20.4766C128.078 20.0391 128.398 19.6458 128.773 19.2969C129.148 18.9479 129.562 18.6536 130.016 18.4141C130.474 18.1693 130.964 17.9818 131.484 17.8516C132.005 17.7214 132.549 17.6562 133.117 17.6562C133.596 17.6562 134.057 17.7005 134.5 17.7891C134.948 17.8724 135.409 17.9714 135.883 18.0859C135.961 18.1068 136.042 18.1328 136.125 18.1641C136.214 18.1953 136.294 18.2266 136.367 18.2578C136.445 18.2839 136.516 18.3073 136.578 18.3281C136.641 18.349 136.688 18.3594 136.719 18.3594C136.729 18.3594 136.763 18.349 136.82 18.3281C136.883 18.3073 136.927 18.2969 136.953 18.2969H137.312C137.375 18.2969 137.406 18.3411 137.406 18.4297V20.9766C137.406 21.0078 137.393 21.0286 137.367 21.0391C137.346 21.0495 137.297 21.0547 137.219 21.0547C137.203 21.0547 137.161 21.0547 137.094 21.0547C137.031 21.0495 136.992 21.0339 136.977 21.0078C136.966 20.9922 136.945 20.9609 136.914 20.9141C136.888 20.8672 136.857 20.8203 136.82 20.7734C136.789 20.7214 136.758 20.6745 136.727 20.6328C136.701 20.5859 136.685 20.5547 136.68 20.5391C136.482 20.1484 136.266 19.8203 136.031 19.5547C135.797 19.2839 135.536 19.0651 135.25 18.8984C134.969 18.7318 134.661 18.612 134.328 18.5391C133.995 18.4609 133.633 18.4219 133.242 18.4219C132.747 18.4219 132.307 18.4792 131.922 18.5938C131.542 18.7083 131.208 18.8698 130.922 19.0781C130.635 19.2865 130.393 19.5365 130.195 19.8281C130.003 20.1198 129.844 20.4401 129.719 20.7891C129.599 21.1328 129.51 21.5026 129.453 21.8984C129.401 22.2891 129.375 22.6927 129.375 23.1094C129.375 23.5521 129.406 23.9922 129.469 24.4297C129.531 24.862 129.633 25.276 129.773 25.6719C129.914 26.0625 130.094 26.4271 130.312 26.7656C130.536 27.099 130.805 27.3906 131.117 27.6406C131.43 27.8854 131.794 28.0781 132.211 28.2188C132.628 28.3594 133.099 28.4297 133.625 28.4297C134.068 28.4297 134.479 28.3646 134.859 28.2344C135.245 28.099 135.596 27.9193 135.914 27.6953C136.232 27.4661 136.513 27.2057 136.758 26.9141C137.008 26.6172 137.221 26.3073 137.398 25.9844C137.409 25.9583 137.419 25.9453 137.43 25.9453C137.445 25.9401 137.466 25.9375 137.492 25.9375H137.891C137.906 25.9375 137.922 25.9453 137.938 25.9609C137.958 25.9714 137.969 25.9974 137.969 26.0391C137.969 26.0547 137.956 26.0964 137.93 26.1641C137.909 26.2266 137.885 26.2812 137.859 26.3281L136.781 28.7031C136.771 28.7188 136.755 28.7318 136.734 28.7422C136.714 28.7526 136.695 28.7578 136.68 28.7578C136.555 28.7578 136.466 28.7474 136.414 28.7266C136.367 28.7057 136.318 28.6953 136.266 28.6953C136.109 28.6953 135.901 28.724 135.641 28.7812C135.385 28.8333 135.107 28.8906 134.805 28.9531C134.508 29.0156 134.206 29.0729 133.898 29.125C133.596 29.1823 133.326 29.2109 133.086 29.2109C132.539 29.2109 132.008 29.151 131.492 29.0312C130.977 28.9115 130.492 28.7396 130.039 28.5156C129.586 28.2865 129.172 28.0078 128.797 27.6797C128.422 27.3464 128.099 26.9714 127.828 26.5547C127.557 26.138 127.346 25.6797 127.195 25.1797C127.049 24.6745 126.977 24.1354 126.977 23.5625ZM74.25 35.0781C74.3021 35.0781 74.3281 35.1354 74.3281 35.25L74.5312 36.9141C74.5521 37.0182 74.5625 37.0859 74.5625 37.1172C74.5625 37.1432 74.5208 37.1562 74.4375 37.1562C74.3594 37.1562 74.3099 37.1458 74.2891 37.125C74.2682 37.1042 74.2474 37.0703 74.2266 37.0234C74.2057 36.9714 74.1797 36.9141 74.1484 36.8516C74.1224 36.7891 74.0938 36.7266 74.0625 36.6641C73.9531 36.4245 73.7812 36.1875 73.5469 35.9531C72.974 35.401 72.3281 35.125 71.6094 35.125C71.1771 35.125 70.7682 35.2656 70.3828 35.5469C69.9974 35.8281 69.8047 36.1615 69.8047 36.5469C69.8047 36.9271 69.875 37.2578 70.0156 37.5391C70.1615 37.8203 70.3516 38.0807 70.5859 38.3203C70.8203 38.5599 71.0885 38.7891 71.3906 39.0078C71.6927 39.2266 72 39.4479 72.3125 39.6719C73.1406 40.25 73.7292 40.7448 74.0781 41.1562C74.625 41.7917 74.9219 42.5052 74.9688 43.2969C74.9688 44.1823 74.6276 44.8906 73.9453 45.4219C73.2682 45.9479 72.4792 46.2109 71.5781 46.2109C71 46.2109 70.5391 46.151 70.1953 46.0312C69.8568 45.9167 69.6224 45.8333 69.4922 45.7812C69.362 45.7292 69.2656 45.7031 69.2031 45.7031C69.1458 45.7031 69.1094 45.7057 69.0938 45.7109L68.7109 45.7891C68.6432 45.7891 68.6016 45.7344 68.5859 45.625C68.4349 44.3333 68.3594 43.6484 68.3594 43.5703C68.3594 43.487 68.3646 43.4323 68.375 43.4062C68.3906 43.375 68.4271 43.3594 68.4844 43.3594C68.6302 43.3594 68.763 43.5677 68.8828 43.9844C69.4297 45.1562 70.3385 45.7422 71.6094 45.7422C72.1927 45.7422 72.6901 45.5651 73.1016 45.2109C73.5182 44.8568 73.7266 44.3958 73.7266 43.8281C73.7266 42.9219 73.1849 42.0781 72.1016 41.2969C71.7943 41.0781 71.3516 40.7734 70.7734 40.3828C70.1953 39.9922 69.7344 39.6016 69.3906 39.2109C68.8542 38.6068 68.5859 37.9349 68.5859 37.1953C68.5859 36.4505 68.8802 35.8411 69.4688 35.3672C70.0625 34.8932 70.7422 34.6562 71.5078 34.6562C71.9036 34.6562 72.3385 34.724 72.8125 34.8594C73.2917 34.9948 73.625 35.0859 73.8125 35.1328L74.25 35.0781ZM87.0547 44.5859C87.0547 45.2891 87.5417 45.6562 88.5156 45.6875C88.5573 45.6875 88.5781 45.7083 88.5781 45.75V45.9375C88.5781 45.9792 88.5573 46 88.5156 46H83.5469C83.5052 46 83.4844 45.9792 83.4844 45.9375V45.75C83.4844 45.7083 83.6146 45.6875 83.875 45.6875C84.1354 45.6875 84.4323 45.6302 84.7656 45.5156C85.276 45.349 85.5312 45.0677 85.5312 44.6719V40.9453C85.5312 40.8932 85.5234 40.8594 85.5078 40.8438C85.4922 40.8281 85.4583 40.8203 85.4062 40.8203H79.25C79.1979 40.8203 79.1641 40.8281 79.1484 40.8438C79.1328 40.8594 79.125 40.8932 79.125 40.9453V44.75C79.125 45.375 79.5859 45.6875 80.5078 45.6875C80.5495 45.6875 80.5703 45.7083 80.5703 45.75V45.9375C80.5703 45.9792 80.5521 46 80.5156 46H76.2031C76.1615 46 76.1406 45.9792 76.1406 45.9375V45.75C76.1406 45.7083 76.1927 45.6875 76.2969 45.6875C77.1667 45.6875 77.6016 45.3151 77.6016 44.5703V36.2344C77.6016 35.625 77.2396 35.3021 76.5156 35.2656C76.4062 35.2604 76.3516 35.237 76.3516 35.1953V35.0469C76.3516 35.0052 76.3698 34.9844 76.4062 34.9844H80.3281C80.3698 34.9844 80.3906 35.0052 80.3906 35.0469V35.1953C80.3906 35.2266 80.3411 35.2422 80.2422 35.2422C79.4974 35.2422 79.125 35.6094 79.125 36.3438V39.9531C79.125 40.0052 79.1328 40.0391 79.1484 40.0547C79.1641 40.0703 79.1979 40.0781 79.25 40.0781H85.4062C85.4583 40.0781 85.4922 40.0703 85.5078 40.0547C85.5234 40.0391 85.5312 40.0052 85.5312 39.9531V36.2188C85.5208 36.1719 85.513 36.1302 85.5078 36.0938C85.5078 36.0521 85.5 35.9896 85.4844 35.9062C85.4479 35.7292 85.263 35.5859 84.9297 35.4766C84.5964 35.362 84.2188 35.2891 83.7969 35.2578C83.7552 35.2578 83.7344 35.237 83.7344 35.1953V35.0469C83.7344 35.0052 83.7526 34.9844 83.7891 34.9844H88.2969C88.3385 34.9844 88.3594 35.0052 88.3594 35.0469V35.1953C88.3594 35.2266 88.3099 35.2422 88.2109 35.2422C87.4401 35.2422 87.0547 35.6094 87.0547 36.3438V44.5859ZM99.0625 45.3281C98.6094 45.6042 98.1146 45.8203 97.5781 45.9766C97.0417 46.1328 96.5651 46.2109 96.1484 46.2109C95.2943 46.2109 94.4792 46.0729 93.7031 45.7969C92.6406 45.4115 91.7865 44.8411 91.1406 44.0859C90.3177 43.1224 89.9062 41.901 89.9062 40.4219C89.9062 39.3542 90.1797 38.3828 90.7266 37.5078C91.2734 36.6276 92.0286 35.9323 92.9922 35.4219C93.9609 34.9115 95 34.6562 96.1094 34.6562C97.224 34.6562 98.2214 34.9036 99.1016 35.3984C99.9818 35.8932 100.688 36.5729 101.219 37.4375C101.75 38.3021 102.016 39.2396 102.016 40.25C102.016 41.2552 101.753 42.2135 101.227 43.125C100.701 44.0312 99.9792 44.7656 99.0625 45.3281ZM91.5469 40.1719C91.5469 41.0365 91.737 41.8958 92.1172 42.75C92.5026 43.599 93.0521 44.2917 93.7656 44.8281C94.4792 45.3646 95.3047 45.6328 96.2422 45.6328C97.5755 45.6328 98.6146 45.1224 99.3594 44.1016C100.031 43.1797 100.367 42.0026 100.367 40.5703C100.367 39.138 99.9557 37.9036 99.1328 36.8672C98.7318 36.362 98.2396 35.9583 97.6562 35.6562C97.0781 35.349 96.4922 35.1953 95.8984 35.1953C95.3099 35.1953 94.8255 35.2604 94.4453 35.3906C94.0703 35.5208 93.7292 35.7005 93.4219 35.9297C93.1146 36.1536 92.8438 36.4219 92.6094 36.7344C92.375 37.0469 92.1797 37.3854 92.0234 37.75C91.7057 38.5 91.5469 39.3073 91.5469 40.1719ZM103.656 46C103.615 46 103.594 45.9479 103.594 45.8438V45.75C103.594 45.7083 103.62 45.6875 103.672 45.6875C103.724 45.6875 103.799 45.6719 103.898 45.6406C104.003 45.6094 104.081 45.5885 104.133 45.5781C104.664 45.4583 104.93 45.1562 104.93 44.6719V36.4219C104.93 35.9427 104.841 35.638 104.664 35.5078C104.487 35.3724 104.167 35.3047 103.703 35.3047H103.352C103.242 35.3047 103.188 35.2422 103.188 35.1172C103.188 35.0443 103.221 35 103.289 34.9844H103.344L107.727 34.8672H108.516C109.448 34.9297 110.224 35.2656 110.844 35.875C111.464 36.4844 111.773 37.2161 111.773 38.0703C111.773 38.9193 111.469 39.6901 110.859 40.3828C110.594 40.6901 110.294 40.9401 109.961 41.1328C109.628 41.3203 109.299 41.4167 108.977 41.4219L106.633 41.3281H106.57C106.492 41.3281 106.453 41.3646 106.453 41.4375V44.6484C106.453 44.9349 106.531 45.1458 106.688 45.2812C106.844 45.4167 107.174 45.5234 107.68 45.6016C107.747 45.612 107.857 45.6302 108.008 45.6562C108.159 45.6771 108.26 45.6875 108.312 45.6875C108.365 45.6875 108.391 45.7083 108.391 45.75V45.9375C108.391 45.9792 108.37 46 108.328 46H103.656ZM107.086 35.2656C107.023 35.2656 106.956 35.2682 106.883 35.2734C106.815 35.2734 106.727 35.276 106.617 35.2812C106.508 35.2812 106.453 35.3229 106.453 35.4062V40.4453L106.469 40.6797C106.484 40.7891 106.534 40.8464 106.617 40.8516L107.414 40.8984C108.253 40.8984 108.927 40.6172 109.438 40.0547C109.953 39.4922 110.211 38.7865 110.211 37.9375C110.211 37.0833 109.961 36.4219 109.461 35.9531C108.966 35.4844 108.305 35.25 107.477 35.25C107.404 35.25 107.336 35.2526 107.273 35.2578C107.211 35.2578 107.148 35.2604 107.086 35.2656Z" fill="black"/>
</g>
</g>
<defs>
<clipPath id="clip0_1_5">
<rect width="176" height="54" fill="white"/>
</clipPath>
</defs>
</svg>
